# xmcd
#
# Track frame offsets:
#	180
#	9956
#	21015
#	32461
#	42180
#	53906
#	67077
#	80463
#	92075
#	103369
#	114746
#	126906
#	136876
#	146865
#	157170
#	167703
#	178382
#	189310
#
# Disc length: 2704 seconds
#
# Revision: 1
# Processed by: cddbd v1.5.2PL0 Copyright (c) Steve Scherf et al.
# Submitted via: audiograbber 1.83.01
#
DISCID=fe0a8e12
DTITLE=Astaire-Crosboy-Jelson - The Dancing Years-part 1
DYEAR=1900
DGENRE=
TTITLE0=Blue Skies
TTITLE1=I'm putting all my egs in one basket
TTITLE2=Dancing cheek to cheek
TTITLE3=China town, my China town
TTITLE4=The Bells of Saint Mary's
TTITLE5=They can't take that away from me
TTITLE6=After you've gone
TTITLE7=White christmas
TTITLE8=Home on the range
TTITLE9=The way you look tonight
TTITLE10=Pretty baby
TTITLE11=Pennies from heaven
TTITLE12=Caroliona in the morning
TTITLE13=My mammy
TTITLE14=Swingin' on a star
TTITLE15=Pick youself up
TTITLE16=Let's face the music and dance
TTITLE17=Anniversary song
EXTD=
EXTT0=
EXTT1=
EXTT2=
EXTT3=
EXTT4=
EXTT5=
EXTT6=
EXTT7=
EXTT8=
EXTT9=
EXTT10=
EXTT11=
EXTT12=
EXTT13=
EXTT14=
EXTT15=
EXTT16=
EXTT17=
PLAYORDER=
